<svg width="26" height="26" viewBox="0 0 26 26" fill="none" xmlns="http://www.w3.org/2000/svg">
<path d="M10.828 3.76543C11.7929 2.09266 14.2071 2.09266 15.172 3.76543C15.7395 4.74913 16.8972 5.22867 17.994 4.93432C19.8591 4.43379 21.5662 6.1409 21.0657 8.00603C20.7713 9.10284 21.2509 10.2605 22.2346 10.828C23.9073 11.7929 23.9073 14.2071 22.2346 15.172C21.2509 15.7395 20.7713 16.8972 21.0657 17.994C21.5662 19.8591 19.8591 21.5662 17.994 21.0657C16.8972 20.7713 15.7395 21.2509 15.172 22.2346C14.2071 23.9073 11.7929 23.9073 10.828 22.2346C10.2605 21.2509 9.10284 20.7713 8.00603 21.0657C6.1409 21.5662 4.43379 19.8591 4.93432 17.994C5.22867 16.8972 4.74913 15.7395 3.76543 15.172C2.09266 14.2071 2.09266 11.7929 3.76543 10.828C4.74913 10.2605 5.22867 9.10284 4.93432 8.00603C4.43379 6.1409 6.1409 4.43379 8.00603 4.93432C9.10284 5.22867 10.2605 4.74913 10.828 3.76543Z" fill="#0A66C2" fill-opacity="0.6"/>
<path d="M11.5 15.1L9.75 13.35C9.555 13.155 9.245 13.155 9.05 13.35C8.855 13.545 8.855 13.855 9.05 14.05L11.145 16.145C11.34 16.34 11.655 16.34 11.85 16.145L17.15 10.85C17.345 10.655 17.345 10.345 17.15 10.15C16.955 9.95503 16.645 9.95503 16.45 10.15L11.5 15.1Z" fill="white" fill-opacity="0.6"/>
</svg>
