<svg width="492" height="367" viewBox="0 0 492 367" fill="none" xmlns="http://www.w3.org/2000/svg">
<g clip-path="url(#clip0_1121_3149)">
<path d="M488.966 22.8001H175.314C174.625 22.7848 174.079 22.2142 174.094 21.5256C174.109 20.8583 174.646 20.3209 175.314 20.3062H488.966C489.655 20.3214 490.201 20.892 490.186 21.5806C490.171 22.2479 489.634 22.7853 488.966 22.8001Z" fill="#E6E6E6"/>
<path d="M230.551 150.94H357.094C357.416 150.94 357.677 151.201 357.677 151.522V225.082C357.677 225.403 357.416 225.664 357.094 225.664H230.551V150.94V150.94Z" fill="#E6E6E6"/>
<path d="M356.946 226.062L230.384 151.504L230.718 150.376L357.279 224.933C357.591 225.025 357.769 225.352 357.677 225.664C357.585 225.976 357.257 226.154 356.946 226.062H356.946Z" fill="white"/>
<path d="M230.718 226.228L230.384 225.1L356.946 150.543C357.257 150.451 357.585 150.629 357.677 150.94V150.94C357.769 151.252 357.591 151.579 357.279 151.671L230.718 226.228Z" fill="white"/>
<path d="M342.722 77.3538H245.363C243.841 77.3538 242.607 78.587 242.607 80.1084V80.1084C242.607 81.6297 243.841 82.863 245.363 82.863H342.722C344.244 82.863 345.478 81.6297 345.478 80.1084C345.478 78.587 344.244 77.3538 342.722 77.3538Z" fill="#E6E6E6"/>
<path d="M355.81 94.5503H232.275C230.753 94.5503 229.519 95.7836 229.519 97.3049V97.3049C229.519 98.8262 230.753 100.06 232.275 100.06H355.81C357.332 100.06 358.566 98.8262 358.566 97.3049C358.566 95.7836 357.332 94.5503 355.81 94.5503Z" fill="#E6E6E6"/>
<path d="M355.81 111.747H232.275C230.753 111.747 229.519 112.98 229.519 114.501C229.519 116.023 230.753 117.256 232.275 117.256H355.81C357.332 117.256 358.566 116.023 358.566 114.501C358.566 112.98 357.332 111.747 355.81 111.747Z" fill="#0A66C2"/>
<path d="M472.956 169.798C472.946 191.064 459.504 210.004 439.429 217.038C439.002 217.19 438.576 217.329 438.145 217.464C411.815 225.879 383.647 211.362 375.229 185.039C366.812 158.717 381.333 130.556 407.663 122.141C433.993 113.726 462.161 128.243 470.579 154.566C472.154 159.49 472.955 164.628 472.956 169.798V169.798Z" fill="#E6E6E6"/>
<path d="M355.788 118.361C355.587 120.68 357.304 122.724 359.624 122.925C359.871 122.946 360.12 122.946 360.367 122.924L366.531 136.577L370.692 129.998L364.202 118.041C363.837 115.729 361.667 114.15 359.355 114.514C357.419 114.818 355.945 116.409 355.788 118.361V118.361Z" fill="#FFB6B6"/>
<path d="M416.528 169.78C416.438 169.376 416.323 168.978 416.185 168.589C415.301 166.079 413.502 163.996 411.148 162.756C411.092 162.724 411.032 162.692 410.976 162.664L382.82 148.381L380.322 143.512L370.229 123.856L367.755 124.592L361.907 126.33L361.772 126.367L371.467 158.981L373.691 160.686L398.886 179.948L399.706 180.578C403.892 183.772 409.785 183.426 413.566 179.763C413.944 179.401 414.292 179.011 414.609 178.596C416.53 176.089 417.234 172.857 416.528 169.779V169.78Z" fill="#0A66C2"/>
<path d="M432.181 205.599L432.033 200.226L431.607 184.641C433.15 174.667 434.243 173.56 426.801 166.74C426.226 166.617 425.73 166.257 425.434 165.749C424.758 164.369 426.384 162.024 424.98 158.416L413.9 159.05L411.148 162.756L400.072 177.674C399.638 178.411 399.242 179.17 398.886 179.948C394.145 190.242 400.573 195.713 401.073 196.654L404.141 206.313L405.832 215.68L406.379 216.982L407.922 217.547C417.766 220.621 428.318 220.591 438.145 217.464C436.491 213.35 434.496 209.381 432.181 205.599Z" fill="#0A66C2"/>
<path d="M453.641 243.484C454.589 241.358 453.633 238.866 451.506 237.918C451.279 237.817 451.044 237.736 450.803 237.677L449.437 222.76L443.354 227.62L445.584 241.04C445.173 243.344 446.709 245.546 449.014 245.957C450.942 246.3 452.855 245.278 453.641 243.484Z" fill="#FFB6B6"/>
<path d="M432.45 170.34C430.843 167.91 428.305 166.249 425.434 165.749C424.819 165.638 424.196 165.582 423.571 165.583C421.489 165.583 419.453 166.197 417.719 167.348C417.168 167.711 416.654 168.127 416.185 168.589C411.973 172.667 411.866 179.385 415.945 183.595L415.948 183.599L432.033 200.226L437.895 206.285L439.429 217.038L441.788 233.581L444.364 233.692L450.462 233.961L450.601 233.966L451.616 210.784L452.089 199.976L432.45 170.34V170.34Z" fill="#0A66C2"/>
<path d="M410.47 132.987C406.553 140.705 409.111 149.646 416.381 154.348C424.241 159.432 434.447 158.319 437.748 148.439C441.424 137.436 438.404 132.716 431.837 127.077C424.141 120.469 414.702 124.647 410.47 132.987Z" fill="#2F2E41"/>
<path d="M429.753 150.181C425.598 155.626 417.815 156.672 412.369 152.519C406.931 148.371 405.878 140.603 410.018 135.158L410.125 135.017C414.401 129.667 422.205 128.795 427.557 133.069C432.786 137.246 433.757 144.819 429.75 150.179L429.753 150.181Z" fill="#FFB6B6"/>
<path d="M406.674 131.737C408.689 133.654 411.146 135.046 413.827 135.789C414.365 135.167 415.002 134.64 415.713 134.227C415.372 134.935 415.139 135.689 415.021 136.465C416.217 138.946 421.1 140.729 425.768 142.553L431.951 131.645L423.767 127.009C417.192 122.465 409.451 124.404 406.674 131.737Z" fill="#2F2E41"/>
<path d="M436.614 127.091C437.827 126.644 439.184 126.842 440.218 127.617C441.214 128.374 442.02 129.354 442.57 130.477C443.571 132.295 444.29 134.255 444.703 136.288C445.056 138.048 444.996 140.175 443.417 141.093C442.099 141.859 440.215 141.377 439.005 140.354C437.882 139.282 437.031 137.958 436.521 136.492C435.93 135.089 435.371 133.634 434.321 132.468L435.412 132.978C435.067 131.931 434.906 130.832 434.937 129.731C434.988 128.616 435.626 127.611 436.614 127.091Z" fill="#2F2E41"/>
<path d="M422.46 128.521L431.24 133.494C436.183 136.294 437.92 142.571 435.119 147.513C431.059 154.676 422.216 157.577 414.7 154.212L422.722 147.132L411.839 152.676L409.516 151.36C421.188 149.238 423.439 140.085 422.46 128.521Z" fill="#2F2E41"/>
<path d="M439.045 137.262C440.523 138.981 442.836 139.65 444.923 140.545C452.401 143.824 457.777 150.583 459.289 158.605C459.866 161.823 459.79 165.155 460.702 168.292C461.608 171.43 463.851 174.508 467.07 175.053C469.249 175.425 471.433 174.584 473.482 173.753C474.609 173.301 475.736 172.846 476.863 172.389C475.688 169.441 474.514 166.492 473.342 163.543C475.225 166.326 477.416 168.888 479.872 171.182C483.911 169.554 487.954 167.926 492 166.298C482.045 166.335 483.744 156.675 481.517 146.982C480.293 141.655 469.869 138.049 467.825 132.981C464.633 125.036 455.603 121.183 447.656 124.374C444.231 125.749 441.41 128.3 439.698 131.569C437.654 132.383 437.595 135.564 439.045 137.262Z" fill="#2F2E41"/>
<path d="M149.877 230.579C148.012 228.218 148.414 224.792 150.776 222.927C151.005 222.747 151.248 222.585 151.502 222.443L148.659 195.441L155.937 192.818L159.079 224.914C160.342 227.64 159.155 230.874 156.429 232.137C154.147 233.193 151.438 232.549 149.877 230.579V230.579H149.877Z" fill="#FFB6B6"/>
<path d="M145.985 131.58C145.985 131.58 157.799 137.342 157.838 144.117C157.876 150.892 158.855 157.02 157.93 159.641C157.005 162.262 160.279 181.316 158.747 183.203C157.214 185.09 160.372 186.056 158.713 189.285C157.053 192.514 156.319 193.122 156.927 193.856C157.535 194.591 158.428 208.589 158.428 208.589L148.693 209.806L138.337 164.624L145.985 131.58H145.985Z" fill="#3F3D56"/>
<path d="M89.8012 233.322C92.0154 231.284 92.1581 227.838 90.12 225.624C89.9225 225.41 89.7082 225.212 89.479 225.032L96.5451 198.815L89.772 195.078L81.6073 226.277C79.9301 228.77 80.5919 232.151 83.0855 233.827C85.172 235.23 87.9484 235.021 89.8012 233.322L89.8012 233.322Z" fill="#FFB6B6"/>
<path d="M109.258 136.175C109.258 136.175 96.6827 140.003 95.5763 146.687C94.4699 153.371 92.5371 159.268 93.0367 162.002C93.5362 164.736 87.2981 183.036 88.5139 185.141C89.7297 187.246 86.4594 187.701 87.5885 191.152C88.7177 194.602 89.3473 195.318 88.631 195.948C87.9147 196.577 84.825 210.26 84.825 210.26L94.2464 212.996L111.599 170.011L109.258 136.175Z" fill="#3F3D56"/>
<path d="M157.552 350.614L165.94 350.614L169.93 318.27L157.551 318.27L157.552 350.614Z" fill="#FFB6B6"/>
<path d="M168.731 351.369V345.684L166.526 345.819L157.55 346.35L155.472 346.478L153.884 365.517L153.799 366.538H159.755L159.946 365.524L160.811 360.917L163.045 365.524L163.534 366.538H179.324C181.28 366.525 182.861 364.941 182.869 362.986C183.536 359.875 170.405 353.148 168.731 351.369H168.731Z" fill="#2F2E41"/>
<path d="M59.2844 341.486L66.5799 345.624L86.0166 319.462L75.2495 313.355L59.2844 341.486Z" fill="#FFB6B6"/>
<path d="M68.6384 347.655L71.439 342.714L69.468 341.743L61.3922 337.781L59.5204 336.859L50.3243 350.32L48.1618 353.481L50.6079 354.871L53.3377 356.423L57.0388 352.056L56.6275 358.287L69.5247 365.609H69.5318L70.3613 366.077C72.0669 367.04 74.2306 366.441 75.1968 364.737C77.3098 362.356 69.2127 350.036 68.6384 347.655H68.6384Z" fill="#2F2E41"/>
<path d="M115.926 191.845C97.3361 192.513 90.8027 268.287 96.4797 269.662L69.9868 319.021L107.696 335.92L132.49 249.853L136.622 281.525L131.112 331.788L155.487 337.681L172.346 336.477C167.965 276.565 157.027 213.376 147.963 188.933L115.926 191.845Z" fill="#2F2E41"/>
<path d="M107.392 197.158L107.27 197.618C119.153 204.227 127.267 202.813 140.256 198.813L149.738 196.82C151.808 194.122 150.121 191.483 147.828 188.913L153.513 142.17C153.475 136.114 148.533 131.236 142.475 131.274C142.226 131.276 141.978 131.286 141.729 131.304L133.19 124.98L121.034 125.4L112.903 134.379L108.045 136.114L104.27 137.459C103.507 138.146 102.674 138.938 101.876 139.812L107.847 175.333L110.386 185.954C106.982 189.835 105.106 193.622 107.392 197.158Z" fill="#3F3D56"/>
<path d="M38.4283 360.671C29.5827 359.618 21.685 354.63 16.9353 347.096C13.8855 342.152 12.3119 336.28 10.79 330.601C10.3469 328.948 9.88896 327.239 9.40404 325.592C8.28232 321.909 9.5146 317.914 12.5164 315.503C15.4183 313.071 19.5081 312.649 22.8456 314.437L23.2017 314.626L23.8257 328.647C24.7503 326.769 26.7793 322.525 28.3868 318.288L28.5217 317.933L28.8297 318.156C32.0615 320.477 34.988 323.196 37.5404 326.248C46.6619 337.334 50.4439 351.87 47.8816 365.994L47.8039 366.41L38.4283 360.671H38.4283Z" fill="#F2F2F2"/>
<path d="M3.1265e-06 366.307C-0.0011327 366.689 0.307352 366.999 0.689026 367H491.307C491.69 367 492 366.69 492 366.307C492 365.924 491.69 365.614 491.307 365.614H0.693155C0.311465 365.613 0.00113895 365.921 8.95126e-06 366.303V366.307H3.1265e-06Z" fill="#CCCCCC"/>
<path d="M144.401 117.007L144.413 117.004C145.737 116.653 146.526 115.296 146.175 113.973L142.644 100.597C142.013 98.2003 140.907 95.9545 139.391 93.9935C136.426 90.1681 132.1 87.6341 127.312 86.9195C124.841 86.5535 122.322 86.6914 119.906 87.325C110.021 89.9169 107.26 93.1852 106.702 109.911C106.144 126.636 110.239 123.307 110.239 123.307C110.324 123.629 110.473 123.931 110.677 124.195C111.076 124.709 111.659 125.049 112.303 125.144C112.633 125.193 112.97 125.174 113.293 125.09C125.637 123.819 138.138 122.663 144.403 117.006L144.401 117.007L144.401 117.007Z" fill="#2F2E41"/>
<path d="M115.378 102.885C113.566 110.196 118.026 117.59 125.338 119.401C128.843 120.269 132.548 119.712 135.643 117.853C138.737 116.008 140.964 113.002 141.826 109.505C143.631 102.193 139.166 94.8023 131.852 92.9973C128.356 92.1346 124.661 92.6887 121.572 94.5389C118.474 96.3814 116.244 99.3876 115.378 102.886L115.378 102.886V102.885Z" fill="#FFB6B6"/>
<path d="M147.175 100.566C146.676 98.6703 145.801 96.8941 144.602 95.3431C142.899 91.0982 140.227 87.6672 135.05 89.7502C133.109 89.4633 131.129 89.5698 129.23 90.0633L126.548 90.7566C126.518 90.7644 126.488 90.7722 126.458 90.7802C118.661 92.8429 114.013 100.834 116.076 108.629L116.147 108.897L121.818 107.425L122.325 101.52L124.138 106.824L127.068 106.064L127.323 103.086L128.238 105.759C133.793 107.917 140.23 105.776 147.243 100.835L147.175 100.566L147.175 100.566Z" fill="#2F2E41"/>
<path d="M134.164 119.257C134.366 119.666 134.45 120.124 134.406 120.578C134.385 120.81 134.331 121.038 134.247 121.256C134.174 121.441 134.08 121.617 133.966 121.78C133.628 122.262 133.13 122.608 132.56 122.756C132.524 122.765 132.489 122.773 132.453 122.781C132.417 122.788 132.381 122.795 132.345 122.801C132.308 122.808 132.271 122.813 132.234 122.818C132.198 122.822 132.161 122.826 132.123 122.829L130.016 122.994L125.685 117.81L127.115 123.228L117.54 123.995L111.469 101.004L126.813 97.0334L126.551 97.5733C125.683 99.3812 125.331 101.393 125.533 103.388C125.748 105.406 126.307 107.373 127.186 109.202C128.061 111.057 129.112 112.824 130.325 114.478C131.391 115.945 132.54 117.35 133.767 118.685C133.926 118.857 134.059 119.049 134.164 119.257Z" fill="#2F2E41"/>
<path d="M210.133 10.0682C212.853 10.0682 215.059 7.81438 215.059 5.03411C215.059 2.25385 212.853 0 210.133 0C207.413 0 205.207 2.25385 205.207 5.03411C205.207 7.81438 207.413 10.0682 210.133 10.0682Z" fill="#3F3D56"/>
<path d="M227.149 10.0682C229.87 10.0682 232.075 7.81438 232.075 5.03411C232.075 2.25385 229.87 0 227.149 0C224.429 0 222.224 2.25385 222.224 5.03411C222.224 7.81438 224.429 10.0682 227.149 10.0682Z" fill="#3F3D56"/>
<path d="M244.166 10.0682C246.886 10.0682 249.091 7.81438 249.091 5.03411C249.091 2.25385 246.886 0 244.166 0C241.445 0 239.24 2.25385 239.24 5.03411C239.24 7.81438 241.445 10.0682 244.166 10.0682Z" fill="#3F3D56"/>
<path d="M263.569 9.01296C263.417 9.01296 263.266 8.95438 263.152 8.83781L259.829 5.44119C259.607 5.21486 259.607 4.85319 259.829 4.62686L263.152 1.23053C263.378 1.00079 263.747 0.997089 263.976 1.22143C264.206 1.44634 264.21 1.81511 263.985 2.04485L261.06 5.03402L263.985 8.02348C264.21 8.25322 264.206 8.622 263.976 8.8469C263.863 8.95779 263.716 9.01296 263.569 9.01296Z" fill="#3F3D56"/>
<path d="M269.154 9.01289C269.007 9.01289 268.86 8.95773 268.747 8.84684C268.516 8.62194 268.512 8.25345 268.737 8.02342L271.662 5.03396L268.737 2.04479C268.512 1.81505 268.516 1.44627 268.747 1.22137C268.976 0.996177 269.345 1.00045 269.57 1.23046L272.894 4.6268C273.115 4.85313 273.115 5.2148 272.894 5.44113L269.57 8.83775C269.456 8.95433 269.305 9.01289 269.154 9.01289Z" fill="#3F3D56"/>
<path d="M443.029 0.582764H436.848C436.144 0.582764 435.573 1.15342 435.573 1.85802V8.04216C435.573 8.74677 436.144 9.31742 436.848 9.31742H443.029C443.733 9.31742 444.31 8.74677 444.31 8.04216V1.85802C444.31 1.15342 443.733 0.582764 443.029 0.582764Z" fill="#3F3D56"/>
<path d="M427.884 0.582764H421.704C420.999 0.582764 420.429 1.15342 420.429 1.85802V8.04216C420.429 8.74677 420.999 9.31742 421.704 9.31742H427.884C428.589 9.31742 429.166 8.74677 429.166 8.04216V1.85802C429.166 1.15342 428.589 0.582764 427.884 0.582764Z" fill="#3F3D56"/>
<path d="M457.299 0.874023H451.119C450.414 0.874023 449.844 1.44468 449.844 2.14928V8.33342C449.844 9.03802 450.414 9.60868 451.119 9.60868H457.299C458.004 9.60868 458.581 9.03802 458.581 8.33342V2.14928C458.581 1.44468 458.004 0.874023 457.299 0.874023Z" fill="#3F3D56"/>
<path d="M364.149 3.22656H314.749C313.887 3.22656 313.194 3.92534 313.194 4.78135C313.194 5.63737 313.887 6.33611 314.749 6.33611H364.149C365.005 6.33611 365.704 5.63733 365.704 4.78135C365.704 3.92538 365.005 3.22656 364.149 3.22656Z" fill="#3F3D56"/>
</g>
<defs>
<clipPath id="clip0_1121_3149">
<rect width="492" height="367" fill="white"/>
</clipPath>
</defs>
</svg>
